<svg width="64" height="64" viewBox="0 0 64 64" fill="none" xmlns="http://www.w3.org/2000/svg">
<mask id="mask0_614_498" style="mask-type:alpha" maskUnits="userSpaceOnUse" x="0" y="0" width="64" height="64">
<path d="M16.1017 14.5029C16.1486 14.5033 16.2282 14.5319 16.3472 14.6159C16.4634 14.6979 16.6048 14.8236 16.7715 14.9951C17.1046 15.3378 17.5305 15.8545 18.0496 16.5471C19.0877 17.9321 20.4921 20.0114 22.2631 22.7864L22.2633 22.787C24.2803 25.9105 27.2351 30.8939 31.1279 37.7381L31.3027 37.6891C31.2488 35.8507 31.1867 32.7536 31.1169 28.3975L31.0865 26.4533C31.0248 21.039 30.9013 17.6106 30.7151 16.1758L30.7063 16.1078L30.6387 16.0958C30.1847 16.0148 29.3647 15.9748 28.1854 15.9733C28.1214 15.7879 28.0898 15.6036 28.0898 15.42C28.0898 15.3172 28.1322 15.1697 28.1886 15.0179C28.2161 14.9439 28.2455 14.8721 28.2722 14.8079C28.2876 14.7713 28.3018 14.7362 28.3147 14.7051H35.1101C35.1837 14.8435 35.2245 15.0378 35.2246 15.2959L35.2003 15.5508C34.2156 15.8487 33.5401 16.2693 33.1995 16.8262C32.8589 17.3833 32.6613 18.1548 32.599 19.1326L32.5988 19.1341C32.3314 24.7325 32.1976 33.2175 32.1972 44.5887L31.583 44.9233L30.9497 43.8686C30.1531 42.4938 29.3598 41.1331 28.5701 39.7869L28.5213 39.704L28.4399 39.7549C27.8358 40.1327 26.8917 40.3337 25.7863 40.2843C24.6832 40.2349 23.4288 39.9364 22.2108 39.3259C19.7771 38.1068 17.4859 35.6416 16.8356 31.4244C16.5539 29.5968 16.0397 27.9654 15.3512 26.5114L15.173 26.5514V31.8312C15.1812 33.8126 15.1408 35.5935 15.251 37.1528C15.4728 40.2897 14.7455 42.635 13.5836 44.0195C12.4251 45.4001 10.8338 45.8294 9.28941 45.147C9.25515 45.1318 9.23937 45.1017 9.24081 45.0674C9.24233 45.0319 9.26286 44.9965 9.30148 44.9789C10.8236 44.2904 13.1299 42.4968 13.6591 39.8525C13.9294 38.5022 14.0532 36.5468 14.1257 34.0074C14.1982 31.4667 14.2193 28.3325 14.2825 24.6239L14.283 24.5953L14.2675 24.5713C13.1529 22.8583 11.7807 21.4443 10.2887 20.285C10.2433 20.2498 10.2401 20.2017 10.2587 20.166C10.2682 20.1477 10.2825 20.1347 10.2978 20.1286C10.312 20.1228 10.3325 20.1201 10.3611 20.1316C11.8176 20.7121 13.0723 21.5225 14.1549 22.6124L14.3117 22.7702L14.315 22.5477C14.337 21.004 14.3557 19.3694 14.3715 17.6438L14.3718 17.6137L14.3543 17.589C13.8378 16.8592 13.3744 16.3727 12.9636 16.1464C12.5642 15.9264 11.9403 15.7788 11.1025 15.6965C11.0582 15.5574 11.0347 15.3851 11.0347 15.1775C11.0347 14.949 11.0577 14.7794 11.0981 14.6625L16.1017 14.5029ZM15.173 23.7861L15.192 23.8112C16.7352 25.8536 17.6238 27.7775 18.7119 31.4652C19.5592 34.3362 21.114 36.4532 22.8105 37.6917C24.5043 38.9281 26.353 39.2964 27.7737 38.6345L27.8671 38.5911L27.8149 38.5022C24.9635 33.6621 22.1565 29.0102 19.3936 24.5463L19.3934 24.5459L19.1167 24.1061C17.7407 21.9346 16.4812 20.1641 15.3384 18.7956L15.173 18.5976V23.7861Z" fill="#FFD541" stroke="#FFD541" stroke-width="0.5"/>
<path d="M52.3923 16.2168L43.4099 32.5678H40.6964L49.23 17.7635H42.7622C42.4259 17.7635 42.1334 17.793 41.8849 17.8519C41.6364 17.8961 41.4098 17.9919 41.2053 18.1392C41.0005 18.2865 40.7885 18.4927 40.5692 18.7579C40.3645 19.023 40.1305 19.3692 39.8674 19.7965L39.4507 19.5754L40.8982 15.8633H52.3923V16.2168Z" fill="#FFD541"/>
<path fill-rule="evenodd" clip-rule="evenodd" d="M54.8248 22.2691C54.2634 21.5205 53.2341 20.6784 53.2341 18.9942C53.2341 16.9336 54.8248 15.5322 57.6318 15.5322C60.4388 15.5322 61.7487 17.1229 61.7487 19.1813C61.7487 20.9047 60.7195 21.8012 60.0645 22.3626C61.2809 23.1112 63.7511 24.1591 63.9008 27.2281C64.0879 31.0644 60.6259 32.5682 57.3511 32.5682C54.0762 32.5682 51.3461 30.9708 51.4563 27.2281C51.5499 24.0468 53.5148 22.6433 54.8248 22.2691ZM58.9417 21.8012C59.9397 20.6784 61.4486 16.3743 57.6318 16.3743C53.5148 16.3743 55.4797 20.4913 58.9417 21.8012ZM52.8599 27.2281C52.8599 24.44 54.9494 23.1974 56.0411 22.924C58.1307 23.3919 62.2914 24.9077 62.2166 27.2281C62.123 30.1287 60.1581 30.9708 57.3511 30.9708C54.8248 30.9708 52.8599 29.5673 52.8599 27.2281Z" fill="#FFD541"/>
<path d="M38.1701 15.8633L38.2066 30.7118C38.2066 31.0212 38.2358 31.2715 38.2943 31.463C38.3527 31.6398 38.4697 31.7871 38.6452 31.905C38.8206 32.0081 39.0618 32.0816 39.3689 32.1258C39.6906 32.1702 39.6378 32.1995 40.135 32.2143V32.5678H33.689V32.2143C34.1716 32.1995 34.5663 32.1554 34.8733 32.0816C35.1802 32.0081 35.4215 31.8975 35.597 31.7502C35.7723 31.603 35.8893 31.4115 35.9479 31.1757C36.0208 30.9253 36.0575 30.6087 36.0575 30.2256V18.5148C35.7942 18.5148 34.9888 18.5148 34.9888 18.5148H34.0531C34.0531 18.5148 33.9163 18.1921 34.0531 18.1392C34.9888 17.7775 36.8601 15.8633 36.8601 15.8633H38.1701Z" fill="#FFD541"/>
<path d="M40.1874 14.5992C36.9026 11.1577 32.7175 8.81396 28.1616 7.86445C23.6054 6.91493 18.8829 7.40227 14.591 9.2648C10.2992 11.1273 6.63098 14.2814 4.05015 18.3282C1.46932 22.3751 0.0917963 27.1328 0.0917969 31.9998C0.0917976 36.8668 1.46932 41.6245 4.05015 45.6713C6.631 49.7183 10.2992 52.8722 14.591 54.7348C18.8829 56.5973 23.6054 57.0846 28.1616 56.1351C32.7175 55.1856 36.9026 52.8419 40.1874 49.4003L39.4319 48.6087C36.2965 51.8937 32.3019 54.1309 27.9531 55.0372C23.6043 55.9435 19.0964 55.4782 14.9999 53.7005C10.9034 51.9227 7.40203 48.9121 4.93859 45.0494C2.47517 41.1868 1.16032 36.6454 1.16032 31.9998C1.16032 27.3542 2.47517 22.8128 4.93859 18.9502C7.40203 15.0875 10.9034 12.0769 14.9999 10.2991C19.0964 8.5213 23.6041 8.05614 27.9531 8.96245C32.3019 9.86876 36.2965 12.1058 39.4319 15.3908L40.1874 14.5992Z" fill="#FFD541"/>
<path d="M40.1874 49.4001C37.7936 52.0735 34.605 53.7209 31.3019 54.6833C30.6973 54.8837 30.0636 55.0488 29.4038 55.1682C30.0374 55.0274 30.6716 54.8669 31.3019 54.6833C36.0476 53.1103 39.007 49.3642 38.7646 48.4867C37.8419 45.1471 38.7646 43.4773 38.513 42.8622L38.9325 43.3016C38.9325 41.4559 39.3519 39.2587 40.694 37.4132C43.4789 33.5835 46.7057 32.843 48.7468 33.0187C46.3142 34.7765 45.9508 35.6261 45.8948 36.5343C45.8948 39.3467 46.3142 40.8408 43.7138 44.7077L44.6366 44.4441C43.2944 48.1353 41.3619 48.4334 40.1874 49.4001Z" fill="#FFD541"/>
</mask>
<g mask="url(#mask0_614_498)">
<rect x="-2.5332" y="3.86621" width="68.2667" height="54.6667" fill="#740A03"/>
</g>
</svg>
