<svg width="348" height="221" viewBox="0 0 348 221" fill="none" xmlns="http://www.w3.org/2000/svg">
<g clip-path="url(#clip0_611_118)">
<path d="M348 0H0V220.041H348V0Z" fill="white"/>
<path d="M146.803 130.205H89.4858V131.911H146.803V130.205Z" fill="#740A03"/>
<mask id="mask0_611_118" style="mask-type:alpha" maskUnits="userSpaceOnUse" x="146" y="73" width="73" height="55">
<path d="M164.756 81.6748C164.808 81.6754 164.897 81.7066 165.029 81.7976C165.159 81.8863 165.316 82.0228 165.502 82.2087C165.873 82.58 166.348 83.14 166.927 83.8906C168.084 85.3916 169.65 87.6455 171.625 90.6533V90.6539C173.874 94.0392 177.168 99.4407 181.508 106.859L181.703 106.806C181.643 104.813 181.574 101.456 181.496 96.7348L181.462 94.6277C181.394 88.7593 181.256 85.0431 181.048 83.488L181.038 83.4147L180.963 83.4016C180.457 83.3135 179.542 83.2703 178.228 83.2685C178.156 83.0678 178.121 82.8683 178.121 82.6693C178.121 82.5578 178.169 82.3975 178.231 82.2332C178.262 82.153 178.295 82.0751 178.325 82.0057C178.342 81.9659 178.357 81.9278 178.372 81.8943H185.948C186.03 82.0444 186.075 82.2548 186.076 82.5345L186.049 82.8108C184.951 83.1338 184.197 83.5898 183.818 84.1931C183.438 84.7969 183.218 85.6333 183.148 86.6931V86.6948C182.85 92.7622 182.701 101.959 182.7 114.284L182.016 114.646L181.31 113.503C180.421 112.013 179.537 110.538 178.656 109.079L178.602 108.989L178.511 109.045C177.838 109.454 176.785 109.672 175.553 109.618C174.323 109.565 172.925 109.241 171.567 108.58C168.853 107.258 166.299 104.586 165.574 100.016C165.26 98.0346 164.686 96.2663 163.919 94.6902L163.72 94.734V100.456C163.729 102.604 163.684 104.534 163.807 106.224C164.054 109.624 163.243 112.166 161.948 113.667C160.656 115.163 158.882 115.629 157.16 114.889C157.122 114.873 157.104 114.84 157.106 114.803C157.108 114.764 157.131 114.726 157.174 114.707C158.871 113.961 161.442 112.017 162.032 109.15C162.333 107.687 162.472 105.568 162.552 102.815C162.633 100.062 162.657 96.6643 162.727 92.645L162.728 92.6138L162.71 92.5876C161.467 90.7312 159.938 89.1983 158.274 87.9423C158.224 87.9036 158.22 87.8519 158.241 87.8132C158.251 87.7933 158.268 87.7791 158.285 87.7723C158.3 87.766 158.323 87.7632 158.355 87.7757C159.979 88.4051 161.378 89.2836 162.585 90.4645L162.759 90.6357L162.764 90.3946C162.788 88.7212 162.809 86.9495 162.826 85.0795L162.827 85.0465L162.807 85.0198C162.231 84.2289 161.715 83.7018 161.256 83.4562C160.811 83.2179 160.116 83.0582 159.182 82.9689C159.132 82.8177 159.106 82.6312 159.106 82.406C159.106 82.1587 159.132 81.9745 159.177 81.8482L164.756 81.6748ZM163.72 91.737L163.741 91.7637C165.462 93.9778 166.452 96.0628 167.665 100.06C168.61 103.172 170.344 105.466 172.235 106.808C174.124 108.149 176.185 108.548 177.769 107.83L177.873 107.783L177.815 107.687C174.635 102.441 171.506 97.3989 168.426 92.5609L168.425 92.5603L168.117 92.0838C166.583 89.7299 165.179 87.8109 163.904 86.3275L163.72 86.1132V91.737Z" fill="#FFD541"/>
<path d="M205.216 83.5326L195.202 101.255H192.176L201.69 85.2094H194.479C194.104 85.2094 193.779 85.2412 193.501 85.3049C193.224 85.3527 192.972 85.4567 192.743 85.6165C192.515 85.7757 192.279 85.9997 192.035 86.2868C191.806 86.5745 191.546 86.9492 191.252 87.4126L190.788 87.1733L192.401 83.1494H205.216V83.5326Z" fill="#FFD541"/>
<path fill-rule="evenodd" clip-rule="evenodd" d="M207.929 90.0918C207.303 89.281 206.155 88.3678 206.155 86.5427C206.155 84.3093 207.929 82.79 211.058 82.79C214.188 82.79 215.648 84.5145 215.648 86.7451C215.648 88.6135 214.501 89.5852 213.771 90.1935C215.127 91.0049 217.881 92.1404 218.047 95.4671C218.256 99.6252 214.397 101.255 210.745 101.255C207.094 101.255 204.05 99.5234 204.173 95.4671C204.278 92.0187 206.468 90.4977 207.929 90.0918ZM212.519 89.5852C213.632 88.3678 215.314 83.7032 211.058 83.7032C206.468 83.7032 208.659 88.1654 212.519 89.5852ZM205.738 95.4671C205.738 92.4451 208.068 91.0982 209.285 90.8019C211.614 91.3091 216.254 92.9517 216.17 95.4671C216.065 98.6108 213.875 99.5234 210.745 99.5234C207.929 99.5234 205.738 98.0025 205.738 95.4671Z" fill="#FFD541"/>
<path d="M189.359 83.1494L189.4 99.2431C189.4 99.5786 189.433 99.8498 189.498 100.057C189.563 100.249 189.693 100.409 189.889 100.537C190.085 100.648 190.354 100.728 190.696 100.776C191.055 100.824 190.996 100.856 191.55 100.872V101.255H184.363V100.872C184.901 100.856 185.342 100.808 185.684 100.728C186.026 100.648 186.295 100.529 186.49 100.369C186.686 100.209 186.817 100.002 186.882 99.7463C186.963 99.4745 187.004 99.1317 187.004 98.7166V86.0236C186.71 86.0236 185.813 86.0236 185.813 86.0236H184.769C184.769 86.0236 184.617 85.6739 184.769 85.6165C185.813 85.2242 187.899 83.1494 187.899 83.1494H189.359Z" fill="#FFD541"/>
<path d="M191.609 81.7792C187.946 78.0493 183.281 75.5089 178.201 74.4798C173.122 73.4506 167.856 73.9788 163.071 75.9979C158.286 78.0163 154.196 81.4352 151.319 85.8213C148.442 90.2073 146.906 95.3638 146.906 100.639C146.906 105.914 148.442 111.071 151.319 115.457C154.196 119.844 158.286 123.262 163.071 125.281C167.856 127.299 173.122 127.828 178.201 126.798C183.281 125.769 187.946 123.229 191.609 119.499L190.767 118.641C187.271 122.201 182.817 124.626 177.968 125.608C173.12 126.591 168.094 126.087 163.527 124.16C158.959 122.233 155.056 118.97 152.309 114.783C149.563 110.597 148.097 105.674 148.097 100.639C148.097 95.6037 149.563 90.6815 152.309 86.495C155.056 82.3086 158.959 79.0455 163.527 77.1186C168.094 75.1916 173.12 74.6879 177.968 75.6698C182.817 76.6523 187.271 79.0768 190.767 82.6372L191.609 81.7792Z" fill="#FFD541"/>
<path d="M191.609 119.499C188.94 122.396 185.385 124.182 181.703 125.225C181.028 125.442 180.322 125.621 179.586 125.751C180.293 125.598 181 125.424 181.703 125.225C186.994 123.52 190.293 119.46 190.023 118.509C188.994 114.889 190.023 113.079 189.742 112.413L190.21 112.889C190.21 110.888 190.677 108.507 192.174 106.507C195.279 102.356 198.877 101.553 201.152 101.744C198.44 103.649 198.035 104.57 197.973 105.554C197.973 108.602 198.44 110.221 195.541 114.413L196.569 114.127C195.073 118.128 192.919 118.451 191.609 119.499Z" fill="#FFD541"/>
</mask>
<g mask="url(#mask0_611_118)">
<path d="M219.798 70.4307H144.271V129.113H219.798V70.4307Z" fill="#C07D30" stroke="#740A03"/>
</g>
<path d="M125.084 140.44C125.112 140.44 125.158 140.456 125.228 140.504C125.296 140.551 125.379 140.622 125.476 140.72C125.671 140.915 125.92 141.209 126.224 141.604C126.832 142.392 127.653 143.576 128.69 145.155V145.156C129.871 146.934 131.6 149.77 133.878 153.667L133.981 153.639C133.949 152.592 133.913 150.829 133.872 148.349L133.854 147.243C133.817 144.161 133.745 142.209 133.637 141.392L133.631 141.354L133.592 141.347C133.326 141.301 132.846 141.278 132.156 141.277C132.118 141.171 132.1 141.067 132.1 140.962C132.1 140.903 132.125 140.82 132.158 140.733C132.174 140.691 132.191 140.65 132.207 140.613C132.216 140.593 132.224 140.573 132.232 140.555H136.208C136.252 140.634 136.276 140.745 136.276 140.891L136.262 141.036C135.685 141.206 135.289 141.446 135.091 141.762C134.891 142.08 134.775 142.519 134.739 143.075L134.739 143.076C134.582 146.263 134.504 151.093 134.504 157.567L134.144 157.757L133.774 157.157C133.307 156.374 132.844 155.599 132.381 154.833L132.353 154.786L132.305 154.815C131.952 155.03 131.399 155.145 130.752 155.116C130.106 155.088 129.372 154.918 128.659 154.571C127.235 153.877 125.894 152.473 125.514 150.073C125.349 149.032 125.048 148.104 124.645 147.276L124.541 147.299V150.304C124.545 151.432 124.522 152.446 124.586 153.334C124.716 155.12 124.29 156.455 123.611 157.243C122.932 158.028 122.001 158.273 121.098 157.885C121.077 157.876 121.068 157.858 121.069 157.839C121.07 157.819 121.082 157.799 121.105 157.789C121.995 157.397 123.345 156.376 123.655 154.871C123.813 154.102 123.885 152.989 123.928 151.543C123.97 150.097 123.983 148.313 124.02 146.201V146.185L124.011 146.171C123.359 145.196 122.556 144.392 121.682 143.731C121.656 143.712 121.654 143.684 121.665 143.664C121.67 143.653 121.678 143.646 121.688 143.642C121.696 143.639 121.708 143.638 121.725 143.644C122.577 143.975 123.311 144.436 123.945 145.056L124.037 145.146L124.038 145.019C124.051 144.141 124.062 143.21 124.072 142.228V142.211L124.062 142.197C123.759 141.781 123.488 141.504 123.248 141.375C123.014 141.25 122.649 141.166 122.158 141.119C122.133 141.04 122.119 140.942 122.119 140.824C122.119 140.694 122.132 140.597 122.156 140.531L125.084 140.44ZM124.541 145.724L124.552 145.739C125.455 146.901 125.975 147.996 126.612 150.096C127.108 151.73 128.018 152.936 129.01 153.64C130.002 154.344 131.084 154.554 131.915 154.177L131.97 154.152L131.939 154.102C130.271 151.346 128.628 148.699 127.011 146.157L126.849 145.907C126.043 144.671 125.306 143.663 124.638 142.884L124.541 142.771V145.724Z" fill="#C07D30"/>
<path d="M146.129 152.589C146.129 153.572 145.923 154.44 145.512 155.195C145.1 155.951 144.52 156.546 143.771 156.983C143.022 157.411 142.138 157.624 141.118 157.624C140.107 157.624 139.242 157.415 138.521 156.997C137.801 156.578 137.244 156.001 136.851 155.264C136.467 154.527 136.275 153.69 136.275 152.753C136.275 151.779 136.481 150.915 136.893 150.16C137.305 149.396 137.885 148.8 138.634 148.372C139.392 147.936 140.276 147.717 141.287 147.717C142.288 147.717 143.149 147.927 143.869 148.345C144.59 148.764 145.147 149.341 145.54 150.078C145.933 150.806 146.129 151.643 146.129 152.589ZM144.389 152.726C144.389 152.171 144.333 151.629 144.22 151.102C144.108 150.574 143.926 150.096 143.673 149.669C143.43 149.241 143.107 148.905 142.704 148.659C142.302 148.404 141.811 148.277 141.23 148.277C140.641 148.277 140.14 148.404 139.728 148.659C139.326 148.914 138.999 149.25 138.746 149.669C138.503 150.087 138.32 150.556 138.198 151.074C138.086 151.593 138.03 152.121 138.03 152.657C138.03 153.185 138.086 153.713 138.198 154.24C138.32 154.759 138.507 155.232 138.76 155.659C139.013 156.087 139.345 156.433 139.757 156.697C140.178 156.951 140.683 157.079 141.273 157.079C141.853 157.079 142.339 156.956 142.732 156.71C143.135 156.465 143.458 156.137 143.701 155.728C143.944 155.309 144.117 154.841 144.22 154.322C144.333 153.804 144.389 153.271 144.389 152.726ZM148.812 157.433C148.793 157.297 148.793 157.151 148.812 156.997C149.279 156.951 149.612 156.91 149.808 156.874C150.005 156.828 150.126 156.737 150.173 156.601C150.22 156.465 150.243 156.233 150.243 155.905V148.454H149.233C148.737 148.454 148.344 148.523 148.054 148.659C147.773 148.786 147.544 148.982 147.366 149.246C147.197 149.51 147.029 149.846 146.86 150.256C146.711 150.274 146.561 150.274 146.411 150.256C146.467 149.819 146.519 149.4 146.566 149C146.622 148.6 146.669 148.213 146.706 147.84C147.314 147.877 147.988 147.899 148.727 147.909C149.467 147.909 150.234 147.909 151.029 147.909C151.834 147.909 152.606 147.909 153.346 147.909C154.094 147.899 154.768 147.877 155.367 147.84C155.404 148.204 155.442 148.591 155.479 149C155.517 149.4 155.563 149.819 155.62 150.256C155.46 150.274 155.306 150.274 155.156 150.256C154.978 149.837 154.801 149.496 154.623 149.232C154.445 148.968 154.216 148.773 153.935 148.645C153.664 148.518 153.28 148.454 152.784 148.454H151.787V155.728C151.787 156.01 151.797 156.233 151.815 156.396C151.834 156.56 151.886 156.678 151.97 156.751C152.063 156.824 152.209 156.878 152.405 156.915C152.602 156.942 152.873 156.969 153.219 156.997C153.247 157.142 153.247 157.288 153.219 157.433C153.023 157.433 152.784 157.429 152.503 157.42C152.232 157.42 151.961 157.42 151.689 157.42C151.418 157.411 151.189 157.406 151.001 157.406C150.824 157.406 150.599 157.411 150.328 157.42C150.066 157.42 149.794 157.42 149.513 157.42C149.242 157.429 149.008 157.433 148.812 157.433ZM154.418 157.433C154.399 157.288 154.399 157.142 154.418 156.997C154.68 156.969 154.89 156.938 155.049 156.901C155.208 156.865 155.344 156.801 155.456 156.71C155.569 156.61 155.676 156.465 155.779 156.273C155.882 156.073 156.004 155.796 156.144 155.441L159.176 147.881C159.279 147.845 159.401 147.818 159.541 147.799C159.691 147.781 159.817 147.772 159.92 147.772L162.938 155.564C163.069 155.891 163.177 156.151 163.261 156.342C163.345 156.524 163.439 156.656 163.542 156.737C163.645 156.819 163.776 156.878 163.935 156.915C164.094 156.942 164.314 156.969 164.594 156.997C164.613 157.142 164.613 157.288 164.594 157.433C164.267 157.433 163.93 157.429 163.584 157.42C163.237 157.411 162.891 157.406 162.545 157.406C162.189 157.406 161.829 157.411 161.464 157.42C161.109 157.429 160.753 157.433 160.397 157.433C160.369 157.297 160.369 157.151 160.397 156.997C160.856 156.951 161.174 156.91 161.352 156.874C161.53 156.828 161.619 156.719 161.619 156.546C161.619 156.474 161.605 156.392 161.576 156.301C161.548 156.21 161.511 156.096 161.464 155.96L160.664 153.858H157.506L156.804 155.741C156.738 155.914 156.687 156.06 156.649 156.178C156.621 156.287 156.607 156.387 156.607 156.478C156.607 156.678 156.701 156.806 156.888 156.86C157.085 156.906 157.403 156.951 157.843 156.997C157.861 157.151 157.861 157.297 157.843 157.433C157.524 157.433 157.211 157.429 156.902 157.42C156.593 157.411 156.28 157.406 155.962 157.406C155.7 157.406 155.447 157.411 155.204 157.42C154.96 157.429 154.698 157.433 154.418 157.433ZM157.716 153.285H160.453L159.078 149.655L157.716 153.285ZM168.057 153.108L167.692 153.067V155.728C167.692 156.01 167.702 156.233 167.721 156.396C167.739 156.56 167.786 156.678 167.861 156.751C167.945 156.824 168.076 156.878 168.254 156.915C168.441 156.942 168.698 156.969 169.026 156.997C169.054 157.142 169.054 157.288 169.026 157.433C168.839 157.433 168.614 157.429 168.352 157.42C168.09 157.42 167.828 157.42 167.566 157.42C167.304 157.411 167.084 157.406 166.906 157.406C166.738 157.406 166.518 157.411 166.247 157.42C165.975 157.42 165.704 157.42 165.433 157.42C165.161 157.429 164.932 157.433 164.745 157.433C164.717 157.297 164.717 157.151 164.745 156.997C165.194 156.96 165.517 156.924 165.713 156.888C165.91 156.842 166.031 156.751 166.078 156.615C166.125 156.469 166.148 156.233 166.148 155.905V149.546C166.148 149.173 166.12 148.905 166.064 148.741C166.017 148.577 165.896 148.468 165.699 148.413C165.503 148.359 165.185 148.318 164.745 148.291C164.717 148.154 164.717 148.009 164.745 147.854C164.923 147.854 165.152 147.858 165.433 147.868C165.723 147.868 166.003 147.872 166.275 147.881C166.555 147.881 166.761 147.881 166.892 147.881C167.061 147.881 167.276 147.881 167.538 147.881C167.809 147.872 168.076 147.863 168.338 147.854C168.61 147.845 168.82 147.84 168.97 147.84C169.559 147.84 170.107 147.918 170.612 148.072C171.127 148.227 171.539 148.482 171.847 148.836C172.166 149.182 172.325 149.651 172.325 150.242C172.325 150.824 172.142 151.343 171.777 151.798C171.422 152.252 170.855 152.594 170.079 152.821V152.862C170.219 152.971 170.378 153.153 170.556 153.408L172.03 155.482C172.273 155.819 172.474 156.082 172.633 156.273C172.802 156.465 172.961 156.61 173.111 156.71C173.26 156.801 173.434 156.865 173.63 156.901C173.827 156.938 174.075 156.969 174.374 156.997C174.402 157.142 174.402 157.288 174.374 157.433C174.196 157.433 173.976 157.429 173.714 157.42C173.452 157.42 173.2 157.42 172.956 157.42C172.713 157.411 172.517 157.406 172.367 157.406C172.217 157.406 172.086 157.411 171.974 157.42C171.861 157.42 171.73 157.42 171.581 157.42L168.984 153.694C168.825 153.458 168.684 153.308 168.563 153.244C168.441 153.171 168.273 153.126 168.057 153.108ZM167.692 152.507C167.814 152.525 167.922 152.539 168.015 152.548C168.109 152.557 168.198 152.562 168.282 152.562C169.012 152.562 169.587 152.38 170.009 152.016C170.439 151.652 170.654 151.115 170.654 150.406C170.654 149.76 170.467 149.264 170.093 148.918C169.728 148.573 169.185 148.4 168.465 148.4C168.371 148.4 168.254 148.404 168.114 148.413C167.983 148.423 167.842 148.436 167.692 148.454V152.507ZM177.425 149.382V155.728C177.425 156.01 177.435 156.233 177.453 156.396C177.472 156.56 177.524 156.678 177.608 156.751C177.692 156.824 177.828 156.878 178.015 156.915C178.202 156.942 178.469 156.969 178.815 156.997C178.843 157.142 178.843 157.288 178.815 157.433C178.628 157.433 178.399 157.429 178.127 157.42C177.856 157.42 177.584 157.42 177.313 157.42C177.051 157.411 176.831 157.406 176.653 157.406C176.476 157.406 176.251 157.411 175.98 157.42C175.718 157.42 175.451 157.42 175.179 157.42C174.917 157.429 174.683 157.433 174.478 157.433C174.45 157.297 174.45 157.151 174.478 156.997C174.927 156.951 175.25 156.91 175.446 156.874C175.643 156.828 175.764 156.737 175.811 156.601C175.858 156.465 175.881 156.233 175.881 155.905V149.56C175.881 149.178 175.858 148.905 175.811 148.741C175.764 148.577 175.643 148.473 175.446 148.427C175.25 148.372 174.927 148.327 174.478 148.291C174.459 148.154 174.459 148.009 174.478 147.854C174.674 147.854 174.908 147.858 175.179 147.868C175.46 147.868 175.736 147.872 176.008 147.881C176.279 147.881 176.504 147.881 176.681 147.881C176.859 147.881 177.079 147.881 177.341 147.881C177.603 147.872 177.87 147.868 178.141 147.868C178.413 147.858 178.637 147.854 178.815 147.854C178.843 147.99 178.843 148.136 178.815 148.291C178.375 148.327 178.057 148.368 177.861 148.413C177.664 148.459 177.542 148.55 177.496 148.686C177.449 148.823 177.425 149.055 177.425 149.382ZM178.562 145.903V145.943C178.356 146.044 178.094 146.18 177.776 146.353C177.467 146.517 177.145 146.694 176.808 146.885C176.48 147.067 176.19 147.235 175.937 147.39C175.835 147.335 175.736 147.226 175.643 147.062C175.961 146.744 176.288 146.394 176.625 146.012C176.962 145.63 177.262 145.288 177.524 144.988C177.673 144.988 177.846 145.088 178.043 145.288C178.249 145.48 178.422 145.684 178.562 145.903ZM178.873 157.433C178.854 157.288 178.854 157.142 178.873 156.997C179.135 156.969 179.345 156.938 179.505 156.901C179.664 156.865 179.799 156.801 179.912 156.71C180.024 156.61 180.132 156.465 180.235 156.273C180.337 156.073 180.459 155.796 180.599 155.441L183.631 147.881C183.734 147.845 183.856 147.818 183.996 147.799C184.146 147.781 184.272 147.772 184.375 147.772L187.393 155.564C187.524 155.891 187.632 156.151 187.716 156.342C187.8 156.524 187.894 156.656 187.997 156.737C188.1 156.819 188.231 156.878 188.39 156.915C188.549 156.942 188.769 156.969 189.05 156.997C189.068 157.142 189.068 157.288 189.05 157.433C188.722 157.433 188.385 157.429 188.039 157.42C187.693 157.411 187.347 157.406 187 157.406C186.645 157.406 186.284 157.411 185.919 157.42C185.564 157.429 185.208 157.433 184.853 157.433C184.825 157.297 184.825 157.151 184.853 156.997C185.311 156.951 185.629 156.91 185.807 156.874C185.985 156.828 186.074 156.719 186.074 156.546C186.074 156.474 186.06 156.392 186.032 156.301C186.004 156.21 185.966 156.096 185.919 155.96L185.119 153.858H181.961L181.259 155.741C181.194 155.914 181.142 156.06 181.105 156.178C181.077 156.287 181.063 156.387 181.063 156.478C181.063 156.678 181.156 156.806 181.343 156.86C181.54 156.906 181.858 156.951 182.298 156.997C182.317 157.151 182.317 157.297 182.298 157.433C181.98 157.433 181.666 157.429 181.357 157.42C181.049 157.411 180.735 157.406 180.417 157.406C180.155 157.406 179.902 157.411 179.659 157.42C179.416 157.429 179.154 157.433 178.873 157.433ZM182.172 153.285H184.909L183.533 149.655L182.172 153.285Z" fill="#C07D30"/>
<path d="M194.835 140.44L194.888 161.667C194.888 162.109 194.93 162.467 195.015 162.741C195.1 162.994 195.27 163.204 195.525 163.373C195.779 163.52 196.129 163.626 196.575 163.689C197.042 163.752 196.966 163.794 197.688 163.815V164.32H188.33V163.815C189.03 163.794 189.603 163.731 190.049 163.626C190.495 163.52 190.845 163.362 191.1 163.151C191.354 162.941 191.524 162.668 191.609 162.33C191.715 161.972 191.768 161.52 191.768 160.972V144.231C191.386 144.231 190.216 144.231 190.216 144.231H188.858C188.858 144.231 188.659 143.769 188.858 143.693C190.216 143.177 192.933 140.44 192.933 140.44H194.835Z" fill="#740A03"/>
<path d="M216.403 140.945L203.413 164.32H199.489L211.83 143.157H202.476C201.99 143.157 201.567 143.199 201.208 143.283C200.849 143.346 200.521 143.483 200.225 143.693C199.929 143.904 199.622 144.199 199.305 144.578C199.009 144.957 198.671 145.452 198.29 146.063L197.688 145.747L199.781 140.44H216.403V140.945Z" fill="#740A03"/>
<path fill-rule="evenodd" clip-rule="evenodd" d="M221.153 149.884C220.362 148.834 218.912 147.654 218.912 145.293C218.912 142.404 221.153 140.44 225.107 140.44C229.062 140.44 230.908 142.67 230.908 145.555C230.908 147.971 229.458 149.227 228.535 150.014C230.248 151.064 233.728 152.533 233.939 156.835C234.203 162.213 229.325 164.32 224.712 164.32C220.098 164.32 216.252 162.081 216.408 156.835C216.539 152.376 219.308 150.408 221.153 149.884ZM226.953 149.227C228.359 147.654 230.485 141.62 225.107 141.62C219.308 141.62 222.076 147.391 226.953 149.227ZM218.385 156.835C218.385 152.927 221.328 151.185 222.867 150.802C225.81 151.457 231.672 153.582 231.567 156.835C231.434 160.901 228.667 162.081 224.712 162.081C221.153 162.081 218.385 160.114 218.385 156.835Z" fill="#740A03"/>
<path d="M121.081 164.32C121.042 164.32 121.008 164.307 120.981 164.28C120.954 164.254 120.94 164.222 120.94 164.184V160.482C120.94 160.441 120.954 160.407 120.981 160.38C121.008 160.353 121.042 160.34 121.081 160.34H122.508C122.902 160.34 123.225 160.399 123.479 160.516C123.736 160.634 123.929 160.808 124.058 161.039C124.19 161.271 124.258 161.553 124.263 161.887C124.27 162.053 124.274 162.201 124.274 162.33C124.274 162.459 124.27 162.605 124.263 162.768C124.254 163.12 124.188 163.412 124.064 163.644C123.938 163.871 123.75 164.042 123.496 164.155C123.247 164.265 122.927 164.32 122.537 164.32H121.081ZM121.753 163.666H122.508C122.726 163.666 122.903 163.636 123.04 163.575C123.176 163.514 123.276 163.418 123.338 163.285C123.405 163.149 123.44 162.971 123.444 162.751C123.447 162.637 123.45 162.539 123.45 162.455C123.453 162.368 123.453 162.283 123.45 162.199C123.45 162.112 123.447 162.013 123.444 161.904C123.436 161.593 123.356 161.364 123.204 161.216C123.052 161.068 122.81 160.994 122.479 160.994H121.753V163.666ZM124.901 164.32C124.861 164.32 124.829 164.307 124.801 164.28C124.774 164.254 124.76 164.222 124.76 164.184V160.482C124.76 160.441 124.774 160.407 124.801 160.38C124.829 160.353 124.861 160.34 124.901 160.34H127.474C127.517 160.34 127.552 160.353 127.579 160.38C127.607 160.407 127.62 160.441 127.62 160.482V160.857C127.62 160.896 127.607 160.927 127.579 160.954C127.552 160.981 127.517 160.994 127.474 160.994H125.55V162H127.345C127.388 162 127.423 162.013 127.451 162.04C127.478 162.063 127.492 162.095 127.492 162.137V162.489C127.492 162.531 127.478 162.565 127.451 162.592C127.423 162.614 127.388 162.626 127.345 162.626H125.55V163.666H127.521C127.564 163.666 127.599 163.679 127.626 163.706C127.654 163.733 127.667 163.767 127.667 163.808V164.184C127.667 164.222 127.654 164.254 127.626 164.28C127.599 164.307 127.564 164.32 127.521 164.32H124.901ZM128.247 164.32C128.207 164.32 128.174 164.307 128.147 164.28C128.12 164.254 128.106 164.222 128.106 164.184V160.477C128.106 160.438 128.12 160.407 128.147 160.38C128.174 160.353 128.207 160.34 128.247 160.34H128.791C128.829 160.34 128.863 160.353 128.89 160.38C128.917 160.407 128.931 160.438 128.931 160.477V163.644H130.785C130.828 163.644 130.863 163.657 130.89 163.683C130.917 163.71 130.931 163.744 130.931 163.786V164.184C130.931 164.222 130.917 164.254 130.89 164.28C130.863 164.307 130.828 164.32 130.785 164.32H128.247ZM132.243 164.32C132.203 164.32 132.17 164.307 132.143 164.28C132.116 164.254 132.102 164.222 132.102 164.184V160.482C132.102 160.441 132.116 160.407 132.143 160.38C132.17 160.353 132.203 160.34 132.243 160.34H134.816C134.859 160.34 134.894 160.353 134.921 160.38C134.948 160.407 134.962 160.441 134.962 160.482V160.857C134.962 160.896 134.948 160.927 134.921 160.954C134.894 160.981 134.859 160.994 134.816 160.994H132.892V162H134.687C134.73 162 134.765 162.013 134.793 162.04C134.819 162.063 134.834 162.095 134.834 162.137V162.489C134.834 162.531 134.819 162.565 134.793 162.592C134.765 162.614 134.73 162.626 134.687 162.626H132.892V163.666H134.863C134.905 163.666 134.941 163.679 134.968 163.706C134.995 163.733 135.009 163.767 135.009 163.808V164.184C135.009 164.222 134.995 164.254 134.968 164.28C134.941 164.307 134.905 164.32 134.863 164.32H132.243ZM136.869 164.377C136.506 164.377 136.202 164.326 135.956 164.223C135.715 164.117 135.53 163.981 135.401 163.814C135.276 163.644 135.21 163.466 135.202 163.28C135.202 163.246 135.214 163.217 135.237 163.194C135.26 163.172 135.29 163.16 135.325 163.16H135.845C135.896 163.16 135.933 163.172 135.956 163.194C135.984 163.213 136.007 163.238 136.027 163.268C136.05 163.34 136.095 163.412 136.161 163.484C136.228 163.553 136.317 163.609 136.43 163.655C136.547 163.7 136.693 163.723 136.869 163.723C137.15 163.723 137.358 163.678 137.495 163.587C137.635 163.496 137.705 163.372 137.705 163.217C137.705 163.107 137.668 163.02 137.594 162.956C137.52 162.887 137.405 162.826 137.249 162.774C137.097 162.717 136.895 162.658 136.641 162.597C136.348 162.529 136.103 162.448 135.904 162.353C135.709 162.254 135.561 162.131 135.459 161.983C135.362 161.835 135.313 161.648 135.313 161.42C135.313 161.2 135.374 161.005 135.494 160.835C135.62 160.664 135.795 160.529 136.021 160.431C136.251 160.333 136.524 160.283 136.84 160.283C137.093 160.283 137.317 160.317 137.512 160.386C137.708 160.45 137.869 160.537 137.998 160.647C138.126 160.753 138.224 160.869 138.29 160.994C138.36 161.115 138.398 161.234 138.401 161.352C138.401 161.382 138.39 161.411 138.366 161.437C138.347 161.46 138.318 161.472 138.278 161.472H137.735C137.704 161.472 137.673 161.464 137.641 161.449C137.61 161.433 137.585 161.405 137.565 161.364C137.541 161.246 137.465 161.146 137.337 161.062C137.208 160.979 137.043 160.937 136.84 160.937C136.629 160.937 136.459 160.975 136.331 161.051C136.202 161.126 136.138 161.244 136.138 161.403C136.138 161.51 136.169 161.598 136.231 161.671C136.298 161.739 136.401 161.8 136.541 161.852C136.686 161.905 136.875 161.962 137.109 162.023C137.44 162.095 137.711 162.178 137.922 162.273C138.132 162.368 138.287 162.489 138.384 162.637C138.481 162.781 138.53 162.965 138.53 163.189C138.53 163.439 138.46 163.653 138.319 163.831C138.183 164.006 137.99 164.14 137.74 164.235C137.491 164.33 137.201 164.377 136.869 164.377ZM139.903 164.32C139.865 164.32 139.831 164.307 139.804 164.28C139.777 164.254 139.763 164.222 139.763 164.184V161.039H138.681C138.642 161.039 138.609 161.026 138.581 161C138.554 160.973 138.54 160.941 138.54 160.903V160.482C138.54 160.441 138.554 160.407 138.581 160.38C138.609 160.353 138.642 160.34 138.681 160.34H141.664C141.707 160.34 141.742 160.353 141.769 160.38C141.796 160.407 141.81 160.441 141.81 160.482V160.903C141.81 160.941 141.796 160.973 141.769 161C141.742 161.026 141.707 161.039 141.664 161.039H140.588V164.184C140.588 164.222 140.574 164.254 140.547 164.28C140.52 164.307 140.485 164.32 140.441 164.32H139.903ZM141.431 164.32C141.4 164.32 141.371 164.309 141.344 164.286C141.32 164.263 141.309 164.235 141.309 164.201C141.309 164.185 141.312 164.168 141.32 164.15L142.73 160.482C142.742 160.444 142.763 160.412 142.794 160.386C142.829 160.355 142.876 160.34 142.935 160.34H143.572C143.631 160.34 143.675 160.355 143.707 160.386C143.738 160.412 143.761 160.444 143.777 160.482L145.186 164.15C145.19 164.168 145.192 164.185 145.192 164.201C145.192 164.235 145.181 164.263 145.157 164.286C145.134 164.309 145.106 164.32 145.075 164.32H144.566C144.511 164.32 144.47 164.309 144.444 164.286C144.42 164.259 144.404 164.235 144.397 164.212L144.122 163.518H142.385L142.11 164.212C142.102 164.235 142.084 164.259 142.057 164.286C142.034 164.309 141.995 164.32 141.94 164.32H141.431ZM142.59 162.865H143.917L143.25 161.108L142.59 162.865ZM145.586 164.32C145.547 164.32 145.514 164.307 145.486 164.28C145.46 164.254 145.445 164.222 145.445 164.184V160.482C145.445 160.441 145.46 160.407 145.486 160.38C145.514 160.353 145.547 160.34 145.586 160.34H147.013C147.407 160.34 147.731 160.399 147.984 160.516C148.241 160.634 148.434 160.808 148.563 161.039C148.696 161.271 148.764 161.553 148.768 161.887C148.776 162.053 148.779 162.201 148.779 162.33C148.779 162.459 148.776 162.605 148.768 162.768C148.76 163.12 148.694 163.412 148.569 163.644C148.444 163.871 148.255 164.042 148.001 164.155C147.752 164.265 147.432 164.32 147.042 164.32H145.586ZM146.258 163.666H147.013C147.232 163.666 147.409 163.636 147.545 163.575C147.682 163.514 147.781 163.418 147.843 163.285C147.91 163.149 147.945 162.971 147.949 162.751C147.953 162.637 147.955 162.539 147.955 162.455C147.959 162.368 147.959 162.283 147.955 162.199C147.955 162.112 147.953 162.013 147.949 161.904C147.941 161.593 147.861 161.364 147.709 161.216C147.557 161.068 147.315 160.994 146.984 160.994H146.258V163.666ZM150.839 164.377C150.492 164.377 150.193 164.322 149.944 164.212C149.695 164.098 149.5 163.926 149.359 163.695C149.219 163.46 149.143 163.168 149.131 162.819C149.127 162.656 149.126 162.495 149.126 162.336C149.126 162.177 149.127 162.013 149.131 161.847C149.143 161.502 149.221 161.214 149.365 160.983C149.509 160.751 149.706 160.577 149.956 160.459C150.209 160.342 150.503 160.283 150.839 160.283C151.174 160.283 151.469 160.342 151.722 160.459C151.976 160.577 152.174 160.751 152.319 160.983C152.463 161.214 152.541 161.502 152.553 161.847C152.56 162.013 152.565 162.177 152.565 162.336C152.565 162.495 152.56 162.656 152.553 162.819C152.541 163.168 152.465 163.46 152.325 163.695C152.184 163.926 151.987 164.098 151.734 164.212C151.484 164.322 151.186 164.377 150.839 164.377ZM150.839 163.723C151.092 163.723 151.299 163.651 151.459 163.507C151.619 163.359 151.705 163.12 151.716 162.791C151.724 162.624 151.728 162.471 151.728 162.33C151.728 162.186 151.724 162.033 151.716 161.87C151.708 161.65 151.666 161.472 151.588 161.335C151.514 161.195 151.412 161.095 151.284 161.034C151.155 160.969 151.006 160.937 150.839 160.937C150.675 160.937 150.529 160.969 150.401 161.034C150.272 161.095 150.168 161.195 150.091 161.335C150.016 161.472 149.975 161.65 149.968 161.87C149.964 162.033 149.962 162.186 149.962 162.33C149.962 162.471 149.964 162.624 149.968 162.791C149.979 163.12 150.065 163.359 150.225 163.507C150.385 163.651 150.589 163.723 150.839 163.723ZM154.224 164.32C154.185 164.32 154.153 164.307 154.125 164.28C154.098 164.254 154.084 164.222 154.084 164.184V160.482C154.084 160.441 154.098 160.407 154.125 160.38C154.153 160.353 154.185 160.34 154.224 160.34H155.652C156.045 160.34 156.369 160.399 156.622 160.516C156.88 160.634 157.073 160.808 157.201 161.039C157.334 161.271 157.402 161.553 157.406 161.887C157.414 162.053 157.418 162.201 157.418 162.33C157.418 162.459 157.414 162.605 157.406 162.768C157.399 163.12 157.332 163.412 157.207 163.644C157.083 163.871 156.893 164.042 156.64 164.155C156.39 164.265 156.071 164.32 155.681 164.32H154.224ZM154.897 163.666H155.652C155.87 163.666 156.047 163.636 156.184 163.575C156.32 163.514 156.419 163.418 156.482 163.285C156.548 163.149 156.583 162.971 156.587 162.751C156.591 162.637 156.593 162.539 156.593 162.455C156.597 162.368 156.597 162.283 156.593 162.199C156.593 162.112 156.591 162.013 156.587 161.904C156.58 161.593 156.5 161.364 156.348 161.216C156.195 161.068 155.954 160.994 155.622 160.994H154.897V163.666ZM158.044 164.32C158.006 164.32 157.972 164.307 157.945 164.28C157.918 164.254 157.904 164.222 157.904 164.184V160.482C157.904 160.441 157.918 160.407 157.945 160.38C157.972 160.353 158.006 160.34 158.044 160.34H160.618C160.661 160.34 160.696 160.353 160.723 160.38C160.75 160.407 160.764 160.441 160.764 160.482V160.857C160.764 160.896 160.75 160.927 160.723 160.954C160.696 160.981 160.661 160.994 160.618 160.994H158.693V162H160.489C160.532 162 160.567 162.013 160.594 162.04C160.622 162.063 160.635 162.095 160.635 162.137V162.489C160.635 162.531 160.622 162.565 160.594 162.592C160.567 162.614 160.532 162.626 160.489 162.626H158.693V163.666H160.664C160.708 163.666 160.743 163.679 160.77 163.706C160.797 163.733 160.811 163.767 160.811 163.808V164.184C160.811 164.222 160.797 164.254 160.77 164.28C160.743 164.307 160.708 164.32 160.664 164.32H158.044ZM163.873 164.377C163.51 164.377 163.202 164.316 162.949 164.195C162.699 164.07 162.509 163.894 162.376 163.666C162.243 163.435 162.169 163.159 162.154 162.836C162.149 162.681 162.148 162.514 162.148 162.336C162.148 162.158 162.149 161.987 162.154 161.824C162.169 161.506 162.243 161.231 162.376 161C162.512 160.768 162.705 160.592 162.955 160.471C163.208 160.346 163.515 160.283 163.873 160.283C164.138 160.283 164.376 160.317 164.587 160.386C164.797 160.454 164.977 160.549 165.125 160.67C165.273 160.788 165.388 160.926 165.47 161.085C165.552 161.244 165.594 161.416 165.598 161.602C165.603 161.636 165.591 161.665 165.563 161.688C165.54 161.71 165.511 161.722 165.476 161.722H164.92C164.877 161.722 164.842 161.712 164.815 161.693C164.787 161.671 164.768 161.635 164.756 161.585C164.694 161.335 164.587 161.165 164.435 161.074C164.283 160.983 164.094 160.937 163.867 160.937C163.606 160.937 163.398 161.009 163.241 161.153C163.085 161.294 163.002 161.527 162.99 161.852C162.978 162.164 162.978 162.482 162.99 162.808C163.002 163.134 163.085 163.369 163.241 163.513C163.398 163.653 163.606 163.723 163.867 163.723C164.094 163.723 164.283 163.678 164.435 163.587C164.587 163.492 164.694 163.321 164.756 163.075C164.768 163.022 164.787 162.986 164.815 162.967C164.842 162.948 164.877 162.938 164.92 162.938H165.476C165.511 162.938 165.54 162.95 165.563 162.973C165.591 162.995 165.603 163.024 165.598 163.058C165.594 163.244 165.552 163.416 165.47 163.575C165.388 163.735 165.273 163.875 165.125 163.996C164.977 164.114 164.797 164.206 164.587 164.275C164.376 164.343 164.138 164.377 163.873 164.377ZM166.14 164.32C166.101 164.32 166.068 164.309 166.041 164.286C166.013 164.259 166 164.225 166 164.184V160.482C166 160.441 166.013 160.407 166.041 160.38C166.068 160.353 166.101 160.34 166.14 160.34H166.672C166.715 160.34 166.748 160.353 166.772 160.38C166.799 160.407 166.813 160.441 166.813 160.482V161.949H168.538V160.482C168.538 160.441 168.552 160.407 168.579 160.38C168.606 160.353 168.639 160.34 168.678 160.34H169.205C169.248 160.34 169.283 160.353 169.31 160.38C169.338 160.407 169.351 160.441 169.351 160.482V164.184C169.351 164.222 169.338 164.254 169.31 164.28C169.283 164.307 169.248 164.32 169.205 164.32H168.678C168.639 164.32 168.606 164.307 168.579 164.28C168.552 164.254 168.538 164.222 168.538 164.184V162.66H166.813V164.184C166.813 164.222 166.799 164.254 166.772 164.28C166.748 164.307 166.715 164.32 166.672 164.32H166.14ZM170.108 164.32C170.07 164.32 170.037 164.307 170.009 164.28C169.982 164.254 169.968 164.222 169.968 164.184V160.477C169.968 160.438 169.982 160.407 170.009 160.38C170.037 160.353 170.07 160.34 170.108 160.34H170.658C170.702 160.34 170.734 160.353 170.758 160.38C170.785 160.407 170.799 160.438 170.799 160.477V164.184C170.799 164.222 170.785 164.254 170.758 164.28C170.734 164.307 170.702 164.32 170.658 164.32H170.108ZM171.172 164.32C171.141 164.32 171.112 164.309 171.084 164.286C171.061 164.263 171.049 164.235 171.049 164.201C171.049 164.185 171.053 164.168 171.061 164.15L172.47 160.482C172.482 160.444 172.503 160.412 172.534 160.386C172.57 160.355 172.616 160.34 172.675 160.34H173.312C173.371 160.34 173.416 160.355 173.447 160.386C173.478 160.412 173.502 160.444 173.517 160.482L174.927 164.15C174.931 164.168 174.932 164.185 174.932 164.201C174.932 164.235 174.921 164.263 174.897 164.286C174.874 164.309 174.847 164.32 174.816 164.32H174.307C174.252 164.32 174.211 164.309 174.184 164.286C174.16 164.259 174.145 164.235 174.137 164.212L173.862 163.518H172.125L171.85 164.212C171.843 164.235 171.825 164.259 171.798 164.286C171.774 164.309 171.736 164.32 171.681 164.32H171.172ZM172.33 162.865H173.657L172.991 161.108L172.33 162.865ZM175.327 164.32C175.288 164.32 175.255 164.307 175.227 164.28C175.2 164.254 175.186 164.222 175.186 164.184V160.482C175.186 160.441 175.2 160.407 175.227 160.38C175.255 160.353 175.288 160.34 175.327 160.34H176.894C177.198 160.34 177.463 160.387 177.69 160.482C177.916 160.573 178.091 160.714 178.216 160.903C178.341 161.089 178.403 161.322 178.403 161.602C178.403 161.887 178.341 162.121 178.216 162.307C178.091 162.489 177.916 162.626 177.69 162.717C177.463 162.808 177.198 162.853 176.894 162.853H176.023V164.184C176.023 164.222 176.009 164.254 175.982 164.28C175.958 164.307 175.925 164.32 175.882 164.32H175.327ZM176.011 162.222H176.865C177.091 162.222 177.264 162.171 177.385 162.069C177.507 161.962 177.567 161.807 177.567 161.602C177.567 161.413 177.51 161.261 177.397 161.147C177.284 161.03 177.106 160.971 176.865 160.971H176.011V162.222ZM178.241 164.32C178.21 164.32 178.18 164.309 178.153 164.286C178.129 164.263 178.118 164.235 178.118 164.201C178.118 164.185 178.122 164.168 178.129 164.15L179.539 160.482C179.551 160.444 179.572 160.412 179.603 160.386C179.638 160.355 179.685 160.34 179.744 160.34H180.381C180.44 160.34 180.485 160.355 180.516 160.386C180.547 160.412 180.571 160.444 180.586 160.482L181.995 164.15C182 164.168 182.001 164.185 182.001 164.201C182.001 164.235 181.99 164.263 181.966 164.286C181.943 164.309 181.916 164.32 181.884 164.32H181.375C181.321 164.32 181.28 164.309 181.253 164.286C181.229 164.259 181.214 164.235 181.206 164.212L180.931 163.518H179.194L178.919 164.212C178.911 164.235 178.894 164.259 178.866 164.286C178.843 164.309 178.804 164.32 178.749 164.32H178.241ZM179.399 162.865H180.726L180.059 161.108L179.399 162.865ZM183.619 164.377C183.256 164.377 182.952 164.326 182.707 164.223C182.465 164.117 182.28 163.981 182.151 163.814C182.026 163.644 181.96 163.466 181.952 163.28C181.952 163.246 181.964 163.217 181.987 163.194C182.011 163.172 182.04 163.16 182.075 163.16H182.596C182.646 163.16 182.683 163.172 182.707 163.194C182.734 163.213 182.758 163.238 182.777 163.268C182.8 163.34 182.845 163.412 182.911 163.484C182.978 163.553 183.068 163.609 183.18 163.655C183.297 163.7 183.444 163.723 183.619 163.723C183.9 163.723 184.109 163.678 184.245 163.587C184.385 163.496 184.455 163.372 184.455 163.217C184.455 163.107 184.419 163.02 184.344 162.956C184.271 162.887 184.155 162.826 183.999 162.774C183.847 162.717 183.645 162.658 183.391 162.597C183.098 162.529 182.853 162.448 182.654 162.353C182.459 162.254 182.311 162.131 182.209 161.983C182.112 161.835 182.063 161.648 182.063 161.42C182.063 161.2 182.124 161.005 182.245 160.835C182.37 160.664 182.545 160.529 182.771 160.431C183.001 160.333 183.274 160.283 183.59 160.283C183.844 160.283 184.068 160.317 184.262 160.386C184.458 160.45 184.619 160.537 184.748 160.647C184.877 160.753 184.974 160.869 185.04 160.994C185.11 161.115 185.148 161.234 185.151 161.352C185.151 161.382 185.14 161.411 185.116 161.437C185.097 161.46 185.068 161.472 185.029 161.472H184.485C184.454 161.472 184.423 161.464 184.391 161.449C184.36 161.433 184.335 161.405 184.315 161.364C184.292 161.246 184.216 161.146 184.087 161.062C183.958 160.979 183.793 160.937 183.59 160.937C183.379 160.937 183.21 160.975 183.081 161.051C182.952 161.126 182.888 161.244 182.888 161.403C182.888 161.51 182.92 161.598 182.982 161.671C183.048 161.739 183.151 161.8 183.291 161.852C183.436 161.905 183.625 161.962 183.859 162.023C184.19 162.095 184.461 162.178 184.672 162.273C184.882 162.368 185.037 162.489 185.134 162.637C185.232 162.781 185.28 162.965 185.28 163.189C185.28 163.439 185.21 163.653 185.07 163.831C184.933 164.006 184.74 164.14 184.49 164.235C184.241 164.33 183.951 164.377 183.619 164.377Z" fill="#740A03"/>
<path d="M257.929 130.205H200.612V131.911H257.929V130.205Z" fill="#740A03"/>
<path d="M257.93 175.692H89.4858V177.398H257.93V175.692Z" fill="#740A03"/>
</g>
<rect x="0.5" y="0.5" width="347" height="219.041" stroke="#D4D4D4"/>
<defs>
<clipPath id="clip0_611_118">
<rect width="348" height="220.041" fill="white"/>
</clipPath>
</defs>
</svg>
